# xmcd
#
# Track frame offsets: 
#        150
#        32475
#        52312
#        69746
#        91332
#        116015
#        138923
#        155101
#
# Disc length: 2310 seconds
#
# Revision: 1
# Processed by: cddbd v1.5.2PL0 Copyright (c) Steve Scherf et al.
# Submitted via: ExactAudioCopy v0.99pb5
#
DISCID=71090408
DTITLE=Sunrize - Sunrize
DYEAR=1982
DGENRE=Funk
TTITLE0=Who's Stickin' It? (Parts 1 and 2)
TTITLE1=I Need Your More Than Words Can Say
TTITLE2=Someone's Taken My Hand
TTITLE3=Come And Get My Lovin'
TTITLE4=I Just Wanna Make Sweet Love Tonight
TTITLE5=Honey I Love You
TTITLE6=Hello Love
TTITLE7=You Are The One
EXTD=
EXTT0=
EXTT1=
EXTT2=
EXTT3=
EXTT4=
EXTT5=
EXTT6=
EXTT7=
PLAYORDER=
